<svg xmlns="http://www.w3.org/2000/svg" viewBox="0 0 68.99 60.88"><title>heart-add-black_3_2</title><g id="Layer_2" data-name="Layer 2"><g id="Layer_6" data-name="Layer 6"><path d="M35.74,60.48l.44-.94-1.27-.6C4.06,44,1.77,19.32,1.75,19.13,1.75,9.55,9,1.75,17.86,1.75S34,9.55,34,19.13h1.75a20.19,20.19,0,0,0-.81-5.7h0C32.63,5.65,25.85,0,17.86,0,8,0,0,8.58,0,19.2,0,19.47.57,26,5.22,34.44c4.09,7.43,12.24,17.77,28,25.63q.82.42,1.68.81Z"/><path d="M34.93,60.88l.81-.4C66.19,45.07,69,19.47,69,19.13,69,8.58,61.17,0,51.56,0,43.75,0,37.13,5.65,34.91,13.43a20.93,20.93,0,0,0-.79,5.7h1.75c0-9.58,7-17.38,15.69-17.38s15.68,7.8,15.68,17.3c0,.25-2.74,24.94-32.33,39.89l-1.78.87.12.26Z"/></g></g></svg>