<svg xmlns="http://www.w3.org/2000/svg" viewBox="0 0 71.1 62.99"><defs><style>.cls-1{fill:#fff;stroke:#fff;stroke-miterlimit:10;stroke-width:2px;}</style></defs><title>heart-add-full-white</title><g id="Layer_2" data-name="Layer 2"><g id="Layer_6" data-name="Layer 6"><path class="cls-1" d="M36.85,61.48l.44-.94L36,59.94C5.17,45,2.88,20.32,2.86,20.13,2.86,10.55,10.09,2.75,19,2.75s16.11,7.8,16.11,17.38h1.75a20.19,20.19,0,0,0-.81-5.7h0C33.74,6.65,27,1,19,1,9.12,1,1.11,9.58,1.11,20.2c0,.27.57,6.77,5.22,15.24,4.09,7.43,12.24,17.77,28,25.63q.83.42,1.68.81Z"/><path class="cls-1" d="M36,61.88l.81-.4c30.45-15.41,33.22-41,33.25-41.35C70.1,9.58,62.28,1,52.67,1,44.86,1,38.24,6.65,36,14.43a20.93,20.93,0,0,0-.79,5.7H37c0-9.58,7-17.38,15.69-17.38s15.68,7.8,15.68,17.3C68.33,20.3,65.61,45,36,59.94l-1.78.87.12.26Z"/><polygon class="cls-1" points="35.3 18.45 44.18 3.43 59.38 4.42 69.93 17.44 56.53 46.85 36.02 59.94 12.74 44.63 1.11 20.2 9.27 4.08 26.3 2.69 35.3 18.45"/></g></g></svg>