<svg xmlns="http://www.w3.org/2000/svg" viewBox="0 0 70.99 62.99"><defs><style>.cls-1{fill:#fff;stroke:#fff;stroke-miterlimit:10;stroke-width:2px;}</style></defs><title>heart-add-white_1</title><g id="Layer_2" data-name="Layer 2"><g id="Layer_6" data-name="Layer 6"><path class="cls-1" d="M36.74,61.48l.44-.94-1.27-.6C5.06,45,2.77,20.32,2.75,20.13,2.75,10.55,10,2.75,18.86,2.75S35,10.55,35,20.13h1.75a20.19,20.19,0,0,0-.81-5.7h0C33.63,6.65,26.85,1,18.86,1,9,1,1,9.58,1,20.2c0,.27.57,6.77,5.22,15.24,4.09,7.43,12.24,17.77,28,25.63q.82.42,1.68.81Z"/><path class="cls-1" d="M35.93,61.88l.81-.4C67.19,46.07,70,20.47,70,20.13,70,9.58,62.17,1,52.56,1,44.75,1,38.13,6.65,35.91,14.43a20.93,20.93,0,0,0-.79,5.7h1.75c0-9.58,7-17.38,15.69-17.38s15.68,7.8,15.68,17.3c0,.25-2.74,24.94-32.33,39.89l-1.78.87.12.26Z"/></g></g></svg>