<svg xmlns="http://www.w3.org/2000/svg" viewBox="0 0 52.38 55.98"><defs><style>.cls-1,.cls-3{fill:none;}.cls-1,.cls-2,.cls-3{stroke:#000;stroke-miterlimit:10;}.cls-1{stroke-width:1.25px;}.cls-2{stroke-width:0.25px;}.cls-3{stroke-width:1.5px;}</style></defs><title>share-black_2</title><g id="Layer_2" data-name="Layer 2"><g id="Layer_6" data-name="Layer 6"><rect class="cls-1" x="6.19" y="21.55" width="40" height="0.01" transform="translate(47.74 -4.63) rotate(90)"/><polygon class="cls-2" points="26.19 0.18 26.88 0.86 26.84 0.9 26.19 1.55 10.68 17.06 9.98 16.41 10.31 16.05 26.16 0.2 26.19 0.18"/><polygon class="cls-2" points="26.19 0.18 26.88 0.86 38.33 12.31 42.41 16.39 41.7 17.06 26.19 1.55 25.5 0.86 26.16 0.2 26.19 0.18"/><path class="cls-3" d="M51.63,24.29V50.63a4.82,4.82,0,0,1-5,4.6H5.73a4.81,4.81,0,0,1-5-4.59V24.29"/></g></g></svg>