<svg xmlns="http://www.w3.org/2000/svg" viewBox="0 0 52.88 58.4"><defs><style>.cls-1{fill:none;stroke-width:2px;}.cls-1,.cls-2{stroke:#fff;stroke-miterlimit:10;}.cls-2{fill:#fff;stroke-width:0.5px;}</style></defs><title>Asset 46</title><g id="Layer_2" data-name="Layer 2"><g id="Layer_6" data-name="Layer 6"><rect class="cls-1" x="6.44" y="22.73" width="40" height="0.01" transform="translate(49.17 -3.7) rotate(90)"/><polygon class="cls-2" points="26.43 0.35 27.13 1.04 27.09 1.08 26.43 1.75 10.66 17.51 9.95 16.85 10.29 16.49 26.4 0.38 26.43 0.35"/><polygon class="cls-2" points="26.43 0.35 27.13 1.04 38.77 12.69 42.91 16.84 42.19 17.51 26.43 1.75 25.73 1.04 26.4 0.38 26.43 0.35"/><path class="cls-1" d="M51.88,26.46V52.81a4.82,4.82,0,0,1-5,4.6H6a4.81,4.81,0,0,1-5-4.59V26.46"/></g></g></svg>